<?xml version='1.0' encoding='utf-8'?>
<svg xmlns="http://www.w3.org/2000/svg" width="511" height="437" version="1.1" viewBox="-0.124 -0.82 511 437">
	<path d="m37.26 15.948h435.96c11.736 0 21.24 9.648 21.24 21.312v361.44c0 11.808-9.504 21.312-21.24 21.312h-435.96c-11.664 0-21.24-9.504-21.24-21.312v-361.44c0-11.664 9.504-21.312 21.24-21.312h0.144z" fill="#007d5a"/>
<path d="m317.08 40.718c29.889 0 54.137 24.397 54.137 54.51 0 30.114-24.249 54.539-54.137 54.539-20.455 0-38.229-11.434-47.428-28.302h-22.308l-17.434-17.434-12.847 12.847-12.847-12.847-12.847 12.847-12.847-12.847-13.764 13.764-24.775-24.775v-4.588l20.179-20.186h109.9c9.33-16.452 26.87-27.532 47.01-27.532zm22.883 39.772c-7.5582 0-13.678 6.3795-13.678 14.251 0 7.8719 6.1192 14.28 13.678 14.28 7.5582 0 13.706-6.4082 13.706-14.28s-6.1479-14.251-13.706-14.251z" fill="#fff" fill-rule="evenodd" stroke-width="0"/><path d="m249.88 173.23c-12.589 6e-3 -25.134 0.0214-25.134 0.0214l-30.928 0.45073c-11.689-0.41356-21.755 3.3714-27.967 16.956l-22.451 56.126c-16.342 4.5055-23.447 16.381-23.824 26.121v73.531h21.549v24.747c-1.0443 23.584 37.619 24.526 38.483-0.21463l0.45072-24.296h139.81l0.4468 24.288c0.8643 24.741 39.528 23.798 38.483 0.21462v-24.747h21.528v-73.531c-0.3769-9.7388-7.4821-21.615-23.824-26.121l-22.451-56.126c-6.212-13.584-16.255-17.37-27.945-16.956l-30.928-0.45072c-0.0988-0.0256-12.717-0.0278-25.305-0.0214zm-53.49 19.96c0.97768-5e-3 1.9811 0.022 3.0263 0.0644l101.42 0.32194c9.281-0.21653 13.224-0.0177 17.17 8.7573l16.162 43.548-168.21-0.2361 15.968-42.346c2.4904-8.4804 7.622-10.071 14.466-10.109zm-35.328 74.454c10.057 0 18.222 8.1435 18.222 18.201 0 10.057-8.1647 18.222-18.222 18.222s-18.201-8.1647-18.201-18.222 8.1435-18.201 18.201-18.201zm178.79 0c10.057 0 18.222 8.1435 18.222 18.201 0 10.057-8.1647 18.222-18.222 18.222s-18.201-8.1647-18.201-18.222 8.1435-18.201 18.201-18.201z" fill="#fff" fill-rule="evenodd" stroke="#fff" stroke-width="1.4649"/></svg>